<mxfile host="app.diagrams.net" modified="2021-08-30T12:14:49.842Z" agent="5.0 (Windows NT 10.0; Win64; x64) AppleWebKit/537.36 (KHTML, like Gecko) Chrome/92.0.4515.159 Safari/537.36" etag="7Pl4YUdwFcWmv6Ia2vTd" version="15.0.2" type="github">
  <diagram id="xZ_1AIJkeaZ1rtI2iKj8" name="Page-1">
    <mxGraphModel dx="1014" dy="904" grid="1" gridSize="10" guides="1" tooltips="1" connect="1" arrows="1" fold="1" page="1" pageScale="1" pageWidth="827" pageHeight="1169" math="0" shadow="0">
      <root>
        <mxCell id="0" />
        <mxCell id="1" parent="0" />
        <mxCell id="1PNxKG9cB4ipBtSQmLbZ-1" value="Mediator Pattern" style="text;html=1;strokeColor=#d6b656;fillColor=#fff2cc;align=center;verticalAlign=middle;whiteSpace=wrap;rounded=0;fontSize=18;fontStyle=1" vertex="1" parent="1">
          <mxGeometry x="280" y="50" width="280" height="40" as="geometry" />
        </mxCell>
        <mxCell id="1PNxKG9cB4ipBtSQmLbZ-2" value="&lt;p style=&quot;margin: 0px ; margin-top: 4px ; text-align: center&quot;&gt;&lt;b&gt;Mediator&lt;/b&gt;&lt;/p&gt;&lt;hr size=&quot;1&quot;&gt;&lt;p style=&quot;margin: 0px ; margin-left: 4px&quot;&gt;+mediate()&lt;/p&gt;" style="verticalAlign=top;align=left;overflow=fill;fontSize=12;fontFamily=Helvetica;html=1;" vertex="1" parent="1">
          <mxGeometry x="120" y="140" width="160" height="70" as="geometry" />
        </mxCell>
        <mxCell id="1PNxKG9cB4ipBtSQmLbZ-3" value="&lt;p style=&quot;margin: 0px ; margin-top: 4px ; text-align: center&quot;&gt;&lt;b&gt;ConcreteMediator&lt;/b&gt;&lt;/p&gt;&lt;hr size=&quot;1&quot;&gt;&lt;p style=&quot;margin: 0px ; margin-left: 4px&quot;&gt;+mediate()&lt;/p&gt;" style="verticalAlign=top;align=left;overflow=fill;fontSize=12;fontFamily=Helvetica;html=1;" vertex="1" parent="1">
          <mxGeometry x="120" y="280" width="160" height="70" as="geometry" />
        </mxCell>
        <mxCell id="1PNxKG9cB4ipBtSQmLbZ-4" value="" style="endArrow=block;endSize=16;endFill=0;html=1;elbow=vertical;rounded=0;entryX=0.5;entryY=1;entryDx=0;entryDy=0;exitX=0.5;exitY=0;exitDx=0;exitDy=0;" edge="1" parent="1" source="1PNxKG9cB4ipBtSQmLbZ-3" target="1PNxKG9cB4ipBtSQmLbZ-2">
          <mxGeometry width="160" relative="1" as="geometry">
            <mxPoint x="200" y="270" as="sourcePoint" />
            <mxPoint x="200" y="260" as="targetPoint" />
          </mxGeometry>
        </mxCell>
        <mxCell id="1PNxKG9cB4ipBtSQmLbZ-6" value="&lt;p style=&quot;margin: 0px ; margin-top: 4px ; text-align: center&quot;&gt;&lt;b&gt;Colleague&lt;/b&gt;&lt;/p&gt;&lt;hr size=&quot;1&quot;&gt;&lt;p style=&quot;margin: 0px ; margin-left: 4px&quot;&gt;+mediate()&lt;/p&gt;" style="verticalAlign=top;align=left;overflow=fill;fontSize=12;fontFamily=Helvetica;html=1;" vertex="1" parent="1">
          <mxGeometry x="500" y="140" width="160" height="70" as="geometry" />
        </mxCell>
        <mxCell id="1PNxKG9cB4ipBtSQmLbZ-7" value="&lt;p style=&quot;margin: 0px ; margin-top: 4px ; text-align: center&quot;&gt;&lt;b&gt;ColleagueA&lt;/b&gt;&lt;/p&gt;&lt;hr size=&quot;1&quot;&gt;&lt;p style=&quot;margin: 0px ; margin-left: 4px&quot;&gt;+getState()&lt;/p&gt;&lt;p style=&quot;margin: 0px ; margin-left: 4px&quot;&gt;+actionA()&lt;/p&gt;" style="verticalAlign=top;align=left;overflow=fill;fontSize=12;fontFamily=Helvetica;html=1;" vertex="1" parent="1">
          <mxGeometry x="415" y="280" width="160" height="70" as="geometry" />
        </mxCell>
        <mxCell id="1PNxKG9cB4ipBtSQmLbZ-8" value="&lt;p style=&quot;margin: 0px ; margin-top: 4px ; text-align: center&quot;&gt;&lt;b&gt;ColleagueB&lt;/b&gt;&lt;br&gt;&lt;/p&gt;&lt;hr size=&quot;1&quot;&gt;&lt;p style=&quot;margin: 0px 0px 0px 4px&quot;&gt;+getState()&lt;/p&gt;&lt;p style=&quot;margin: 0px 0px 0px 4px&quot;&gt;+actionB()&lt;/p&gt;" style="verticalAlign=top;align=left;overflow=fill;fontSize=12;fontFamily=Helvetica;html=1;" vertex="1" parent="1">
          <mxGeometry x="615" y="280" width="160" height="70" as="geometry" />
        </mxCell>
        <mxCell id="1PNxKG9cB4ipBtSQmLbZ-9" value="" style="endArrow=open;endFill=1;endSize=12;html=1;exitX=0;exitY=0.5;exitDx=0;exitDy=0;" edge="1" parent="1" source="1PNxKG9cB4ipBtSQmLbZ-6">
          <mxGeometry width="160" relative="1" as="geometry">
            <mxPoint x="414" y="210" as="sourcePoint" />
            <mxPoint x="280" y="175" as="targetPoint" />
          </mxGeometry>
        </mxCell>
        <mxCell id="1PNxKG9cB4ipBtSQmLbZ-10" value="+mediator" style="text;html=1;align=center;verticalAlign=middle;resizable=0;points=[];autosize=1;strokeColor=none;" vertex="1" parent="1">
          <mxGeometry x="290" y="150" width="70" height="20" as="geometry" />
        </mxCell>
        <mxCell id="1PNxKG9cB4ipBtSQmLbZ-11" value="" style="endArrow=block;endSize=16;endFill=0;html=1;elbow=vertical;rounded=0;entryX=0.25;entryY=1;entryDx=0;entryDy=0;exitX=0.5;exitY=0;exitDx=0;exitDy=0;" edge="1" parent="1" source="1PNxKG9cB4ipBtSQmLbZ-7" target="1PNxKG9cB4ipBtSQmLbZ-6">
          <mxGeometry width="160" relative="1" as="geometry">
            <mxPoint x="530" y="300" as="sourcePoint" />
            <mxPoint x="530" y="230" as="targetPoint" />
          </mxGeometry>
        </mxCell>
        <mxCell id="1PNxKG9cB4ipBtSQmLbZ-12" value="" style="endArrow=block;endSize=16;endFill=0;html=1;elbow=vertical;rounded=0;entryX=0.75;entryY=1;entryDx=0;entryDy=0;exitX=0.5;exitY=0;exitDx=0;exitDy=0;" edge="1" parent="1" source="1PNxKG9cB4ipBtSQmLbZ-8" target="1PNxKG9cB4ipBtSQmLbZ-6">
          <mxGeometry width="160" relative="1" as="geometry">
            <mxPoint x="505" y="290" as="sourcePoint" />
            <mxPoint x="550" y="220" as="targetPoint" />
          </mxGeometry>
        </mxCell>
        <mxCell id="1PNxKG9cB4ipBtSQmLbZ-13" value="" style="endArrow=open;endFill=1;endSize=12;html=1;exitX=1;exitY=0.25;exitDx=0;exitDy=0;entryX=0;entryY=0.25;entryDx=0;entryDy=0;" edge="1" parent="1" source="1PNxKG9cB4ipBtSQmLbZ-3" target="1PNxKG9cB4ipBtSQmLbZ-7">
          <mxGeometry width="160" relative="1" as="geometry">
            <mxPoint x="460" y="300" as="sourcePoint" />
            <mxPoint x="420" y="300" as="targetPoint" />
          </mxGeometry>
        </mxCell>
        <mxCell id="1PNxKG9cB4ipBtSQmLbZ-14" value="colleagueA" style="text;html=1;align=center;verticalAlign=middle;resizable=0;points=[];autosize=1;strokeColor=none;" vertex="1" parent="1">
          <mxGeometry x="340" y="270" width="70" height="20" as="geometry" />
        </mxCell>
        <mxCell id="1PNxKG9cB4ipBtSQmLbZ-15" value="" style="endArrow=open;endFill=1;endSize=12;html=1;exitX=0.5;exitY=1;exitDx=0;exitDy=0;entryX=0.556;entryY=1.014;entryDx=0;entryDy=0;entryPerimeter=0;" edge="1" parent="1" source="1PNxKG9cB4ipBtSQmLbZ-3" target="1PNxKG9cB4ipBtSQmLbZ-8">
          <mxGeometry width="160" relative="1" as="geometry">
            <mxPoint x="290" y="307.5" as="sourcePoint" />
            <mxPoint x="425" y="307.5" as="targetPoint" />
            <Array as="points">
              <mxPoint x="200" y="400" />
              <mxPoint x="704" y="400" />
            </Array>
          </mxGeometry>
        </mxCell>
        <mxCell id="1PNxKG9cB4ipBtSQmLbZ-16" value="colleagueB" style="text;html=1;align=center;verticalAlign=middle;resizable=0;points=[];autosize=1;strokeColor=none;" vertex="1" parent="1">
          <mxGeometry x="640" y="410" width="70" height="20" as="geometry" />
        </mxCell>
      </root>
    </mxGraphModel>
  </diagram>
</mxfile>
